<svg width="720" height="540" viewBox="0 0 720 540" fill="none" xmlns="http://www.w3.org/2000/svg">
  <rect width="720" height="540" rx="48" fill="url(#bg)"/>
  <ellipse cx="470" cy="275" rx="190" ry="150" fill="#B6D8A8" fill-opacity="0.45"/>
  <ellipse cx="550" cy="140" rx="82" ry="62" fill="#9CCC8A"/>
  <ellipse cx="596" cy="108" rx="30" ry="50" transform="rotate(-28 596 108)" fill="#63A047"/>
  <ellipse cx="520" cy="110" rx="26" ry="46" transform="rotate(18 520 110)" fill="#5B9D42"/>
  <ellipse cx="505" cy="202" rx="64" ry="48" fill="#5F9E42"/>
  <ellipse cx="478" cy="185" rx="38" ry="34" fill="#71B855"/>
  <ellipse cx="542" cy="182" rx="40" ry="32" fill="#4E8D37"/>
  <ellipse cx="576" cy="240" rx="38" ry="110" transform="rotate(25 576 240)" fill="#3F7E2E"/>
  <ellipse cx="482" cy="255" rx="120" ry="26" fill="#D0DABF"/>
  <rect x="350" y="252" width="210" height="118" rx="24" fill="#FFFDF7"/>
  <rect x="370" y="272" width="170" height="78" rx="18" fill="#E9F4E0"/>
  <rect x="398" y="230" width="118" height="40" rx="20" fill="#2E7D32"/>
  <ellipse cx="458" cy="248" rx="42" ry="10" fill="#225826"/>
  <circle cx="438" cy="246" r="12" fill="#F4C95D"/>
  <circle cx="468" cy="244" r="12" fill="#EC8C5A"/>
  <circle cx="498" cy="246" r="12" fill="#9CCC65"/>
  <circle cx="420" cy="308" r="18" fill="#F59E66"/>
  <circle cx="459" cy="310" r="18" fill="#7CB342"/>
  <circle cx="498" cy="307" r="18" fill="#EF5350"/>
  <circle cx="420" cy="332" r="18" fill="#E0C25F"/>
  <circle cx="459" cy="333" r="18" fill="#2E7D32"/>
  <circle cx="498" cy="332" r="18" fill="#A5D66F"/>
  <path d="M208 390C208 346 244 310 288 310H373C417 310 453 346 453 390V391C453 435 417 471 373 471H288C244 471 208 435 208 391V390Z" fill="#FFFDF7"/>
  <path d="M222 389C222 354 251 325 286 325H373C408 325 437 354 437 389V390C437 425 408 454 373 454H286C251 454 222 425 222 390V389Z" fill="#F0F6E5"/>
  <ellipse cx="296" cy="390" rx="38" ry="28" fill="#7CB342"/>
  <ellipse cx="334" cy="390" rx="30" ry="22" fill="#FFB74D"/>
  <ellipse cx="366" cy="388" rx="28" ry="24" fill="#8D6E63"/>
  <ellipse cx="319" cy="418" rx="56" ry="14" fill="#D9DFCA"/>
  <circle cx="324" cy="423" r="26" fill="#B9D67F"/>
  <circle cx="324" cy="423" r="17" fill="#8BC34A"/>
  <ellipse cx="324" cy="428" rx="38" ry="10" fill="#DEE8D4"/>
  <circle cx="603" cy="360" r="54" fill="#FFF7E3"/>
  <circle cx="603" cy="360" r="28" fill="#D9822B"/>
  <ellipse cx="603" cy="366" rx="46" ry="12" fill="#E8DFC9"/>
  <defs>
    <linearGradient id="bg" x1="52" y1="46" x2="648" y2="506" gradientUnits="userSpaceOnUse">
      <stop stop-color="#EFF8EA"/>
      <stop offset="1" stop-color="#DAEDD6"/>
    </linearGradient>
  </defs>
</svg>
